<svg width="25" height="25" viewBox="0 0 40 40" fill="none" xmlns="http://www.w3.org/2000/svg">
<path d="M20 10C18.9 10 18 10.9 18 12V18H12C10.9 18 10 18.9 10 20C10 21.1 10.9 22 12 22H18V28C18 29.1 18.9 30 20 30C21.1 30 22 29.1 22 28V22H28C29.1 22 30 21.1 30 20C30 18.9 29.1 18 28 18H22V12C22 10.9 21.1 10 20 10ZM20 0C8.96 0 0 8.96 0 20C0 31.04 8.96 40 20 40C31.04 40 40 31.04 40 20C40 8.96 31.04 0 20 0ZM20 36C11.18 36 4 28.82 4 20C4 11.18 11.18 4 20 4C28.82 4 36 11.18 36 20C36 28.82 28.82 36 20 36Z" fill="#202040"/>
</svg>
